<svg width="195" height="181" viewBox="0 0 195 181" fill="none" xmlns="http://www.w3.org/2000/svg">
<path d="M22.408 15.64V34.936C22.408 35.7467 22.5573 36.312 22.856 36.632C23.1547 36.9307 23.6347 37.08 24.296 37.08C24.7227 37.08 25.0747 37.048 25.352 36.984C25.6293 36.92 26.0027 36.8027 26.472 36.632L26.056 38.872C25.7147 39.0213 25.3413 39.128 24.936 39.192C24.5307 39.2773 24.1147 39.32 23.688 39.32C22.3867 39.32 21.416 38.968 20.776 38.264C20.1573 37.56 19.848 36.4827 19.848 35.032V15.64H22.408ZM36.3813 22.68C37.8959 22.68 39.2293 23.0107 40.3813 23.672C41.5546 24.3333 42.4719 25.2933 43.1333 26.552C43.7946 27.7893 44.1253 29.272 44.1253 31C44.1253 32.728 43.7946 34.2213 43.1333 35.48C42.4719 36.7173 41.5546 37.6667 40.3813 38.328C39.2293 38.9893 37.8959 39.32 36.3813 39.32C34.8879 39.32 33.5546 38.9893 32.3813 38.328C31.2079 37.6667 30.2906 36.7173 29.6293 35.48C28.9679 34.2213 28.6373 32.728 28.6373 31C28.6373 29.272 28.9679 27.7893 29.6293 26.552C30.2906 25.2933 31.2079 24.3333 32.3813 23.672C33.5546 23.0107 34.8879 22.68 36.3813 22.68ZM36.3813 24.888C35.2933 24.888 34.3653 25.1333 33.5973 25.624C32.8293 26.1147 32.2319 26.8187 31.8053 27.736C31.3999 28.632 31.1973 29.72 31.1973 31C31.1973 32.2587 31.3999 33.3467 31.8053 34.264C32.2319 35.1813 32.8293 35.8853 33.5973 36.376C34.3653 36.8667 35.2933 37.112 36.3813 37.112C37.4693 37.112 38.3973 36.8667 39.1653 36.376C39.9333 35.8853 40.5199 35.1813 40.9253 34.264C41.3519 33.3467 41.5653 32.2587 41.5653 31C41.5653 29.72 41.3519 28.632 40.9253 27.736C40.5199 26.8187 39.9333 26.1147 39.1653 25.624C38.3973 25.1333 37.4693 24.888 36.3813 24.888ZM55.5688 22.68C56.6781 22.68 57.6488 22.8507 58.4808 23.192C59.3341 23.5333 60.0701 24.024 60.6888 24.664C61.3074 25.304 61.8088 26.0613 62.1928 26.936L59.7608 28.088C59.4194 27.064 58.8968 26.2853 58.1928 25.752C57.5101 25.1973 56.6141 24.92 55.5048 24.92C54.4381 24.92 53.5208 25.1653 52.7528 25.656C51.9848 26.1253 51.3981 26.8187 50.9928 27.736C50.5874 28.632 50.3848 29.72 50.3848 31C50.3848 32.2587 50.5874 33.3467 50.9928 34.264C51.3981 35.1813 51.9848 35.8853 52.7528 36.376C53.5208 36.8453 54.4381 37.08 55.5048 37.08C56.3368 37.08 57.0514 36.952 57.6488 36.696C58.2674 36.44 58.7688 36.0667 59.1528 35.576C59.5581 35.0853 59.8354 34.488 59.9848 33.784L62.3528 34.616C61.9901 35.5973 61.4888 36.44 60.8488 37.144C60.2301 37.848 59.4728 38.392 58.5768 38.776C57.7021 39.1387 56.6994 39.32 55.5688 39.32C54.0754 39.32 52.7421 38.9893 51.5688 38.328C50.3954 37.6667 49.4781 36.7173 48.8168 35.48C48.1554 34.2213 47.8248 32.728 47.8248 31C47.8248 29.272 48.1554 27.7893 48.8168 26.552C49.4781 25.2933 50.3954 24.3333 51.5688 23.672C52.7421 23.0107 54.0754 22.68 55.5688 22.68Z" fill="black"/>
<path d="M113.856 17.592C115.221 17.592 116.405 17.816 117.408 18.264C118.411 18.712 119.189 19.352 119.744 20.184C120.299 20.9947 120.576 21.976 120.576 23.128C120.576 24.216 120.309 25.176 119.776 26.008C119.264 26.8187 118.539 27.4373 117.6 27.864V27.896C118.795 28.344 119.744 29.0267 120.448 29.944C121.173 30.8613 121.536 31.9813 121.536 33.304C121.536 34.5413 121.216 35.608 120.576 36.504C119.936 37.4 119.04 38.0933 117.888 38.584C116.757 39.0747 115.413 39.32 113.856 39.32C112.32 39.32 110.976 39.0747 109.824 38.584C108.672 38.0933 107.776 37.4 107.136 36.504C106.496 35.608 106.176 34.5413 106.176 33.304C106.176 32.0027 106.528 30.8933 107.232 29.976C107.936 29.0373 108.907 28.344 110.144 27.896V27.864C109.227 27.4587 108.491 26.8507 107.936 26.04C107.403 25.208 107.136 24.2373 107.136 23.128C107.136 21.976 107.413 20.9947 107.968 20.184C108.523 19.352 109.301 18.712 110.304 18.264C111.328 17.816 112.512 17.592 113.856 17.592ZM113.856 19.992C112.619 19.992 111.627 20.2907 110.88 20.888C110.155 21.4853 109.792 22.3173 109.792 23.384C109.792 24.4293 110.165 25.2507 110.912 25.848C111.659 26.4453 112.64 26.744 113.856 26.744C115.072 26.744 116.053 26.4453 116.8 25.848C117.547 25.2507 117.92 24.4293 117.92 23.384C117.92 22.3173 117.557 21.4853 116.832 20.888C116.107 20.2907 115.115 19.992 113.856 19.992ZM113.856 36.92C114.901 36.92 115.797 36.7707 116.544 36.472C117.291 36.152 117.867 35.704 118.272 35.128C118.677 34.5307 118.88 33.8373 118.88 33.048C118.88 32.2373 118.667 31.544 118.24 30.968C117.835 30.3707 117.259 29.9227 116.512 29.624C115.765 29.304 114.88 29.144 113.856 29.144C112.853 29.144 111.968 29.304 111.2 29.624C110.453 29.9227 109.867 30.3707 109.44 30.968C109.035 31.544 108.832 32.2373 108.832 33.048C108.832 33.8373 109.035 34.5307 109.44 35.128C109.845 35.704 110.421 36.152 111.168 36.472C111.936 36.7707 112.832 36.92 113.856 36.92Z" fill="black"/>
<path d="M76.8304 32.4133C94.4955 34.3761 78.5792 58.5902 73.3292 64.4964C65.8604 72.8989 54.5845 77.6408 44.1744 81.1109C34.6837 84.2744 21.5267 87.1042 14.0646 94.0332C1.02576 106.141 0.515561 120.11 3.49759 137.256C7.5153 160.358 28.6183 169.061 48.4394 174.496C63.6806 178.675 82.5752 182.501 94.5906 170.485C101.184 163.892 97.8913 144.632 95.4182 136.938C92.0712 126.525 89.8073 113.035 92.8719 102.309C96.0996 91.0116 108.087 88.5587 118.335 88.5587C125.023 88.5587 129.261 88.7386 135.267 91.7416C139.393 93.8045 145.031 95.4337 149.59 95.4337C160.804 95.4337 169.017 95.2096 178.809 89.4499C181.753 87.7181 184.651 81.1422 185.938 78.2463C188.657 72.1303 188.082 64.3258 190.84 58.2581C196.345 46.1478 183.447 38.9585 176.517 32.4133C170.12 26.3715 157.952 26.6842 149.59 26.6842C146.022 26.6842 143.104 27.4573 139.625 26.6842C137.991 26.3211 134.32 25.6971 136.986 27.83C138.763 29.2518 139.502 31.8779 140.997 33.5592C144.026 36.9673 143.57 39.4917 143.288 34.705C143.08 31.1664 137.686 31.2057 137.686 28.403C137.686 28.0519 142.382 19.5177 143.288 19" stroke="#262626" stroke-width="4" stroke-linecap="round"/>
</svg>
