<svg width="81" height="109" viewBox="0 0 81 109" fill="none" xmlns="http://www.w3.org/2000/svg">
<path d="M71 36.5C71 56.1192 55.317 72 36 72C16.683 72 1 56.1192 1 36.5C1 16.8808 16.683 1 36 1C55.317 1 71 16.8808 71 36.5Z" fill="#FFC022" stroke="#262626" stroke-width="2"/>
<path d="M36.3447 17.9742C36.3447 13.4261 40.7279 13 45.0855 13C52.7965 13 57.9581 16.6931 59.7281 24.1757C60.2351 26.3191 59.8776 28.8113 59.8776 30.991C59.8776 33.0465 59.3431 32.4456 58.5328 33.6718C56.9469 36.0717 54.5598 38 51.1368 38C44.3432 38 35 36.9745 35 29.4083V23.7235C35 21.7274 36.3447 20.104 36.3447 17.9742Z" stroke="#262626" stroke-width="2" stroke-linecap="round"/>
<path d="M43.9716 38C35.7756 46.67 30.5157 57.5417 26.5018 68.4398C24.0523 75.0903 22.4539 81.818 20.3855 88.5586C20.1729 89.2515 18.6679 94.112 19.067 93.998C26.8256 91.7821 36.4936 92.6033 44.5943 92.6033C50.0555 92.6033 55.3558 92.3439 60.7822 92.0105C66.1238 91.6825 71.5772 91.9757 76.9336 91.9757C77.8981 91.9757 80.7225 92.2818 79.827 91.9408C77.3701 91.0052 75.4413 85.5518 74.553 83.6422C69.4768 72.7295 63.9785 61.9472 58.6214 51.1801C57.6041 49.1354 55.838 44.9822 55.838 42.7072C55.838 41.2111 53.8602 40.3205 53.8602 38.6276" stroke="#262626" stroke-width="2" stroke-linecap="round"/>
<circle cx="40.5" cy="24.5" r="1.5" fill="black"/>
<circle cx="50.5" cy="24.5" r="1.5" fill="black"/>
<path d="M19 93C19 93 35.5 39.6279 44 38.6278C52.5 37.6277 53.5 39 53.5 39L78 91.5878L19 93Z" fill="#262626"/>
<path d="M40 89C40 93.4986 40 97.9972 40 102.496C40 107.712 41.3092 106.963 47 106.963" stroke="#262626" stroke-width="2" stroke-linecap="round"/>
<path d="M57 89C57 93.4986 57 97.9972 57 102.496C57 107.712 57.9352 106.963 62 106.963" stroke="#262626" stroke-width="2" stroke-linecap="round"/>
</svg>
